<svg xmlns="http://www.w3.org/2000/svg" viewBox="0 0 192 192" role="img" aria-label="Control Presion icono">
  <defs>
    <linearGradient id="bg" x1="0" y1="0" x2="1" y2="1">
      <stop offset="0%" stop-color="#1976d2"/>
      <stop offset="100%" stop-color="#0d47a1"/>
    </linearGradient>
  </defs>
  <rect width="192" height="192" rx="40" fill="url(#bg)"/>
  <path d="M96 156c-2 0-4-.8-5.4-2.3L52.8 116c-8.6-8.7-8.6-22.7 0-31.4 8.6-8.6 22.6-8.6 31.2 0l12 12 12-12c8.6-8.6 22.6-8.6 31.2 0 8.6 8.7 8.6 22.7 0 31.4l-37.8 37.7A7.6 7.6 0 0 1 96 156Z" fill="#e3f2fd"/>
  <path d="M40 96h24l8-16 14 32 12-24 8 16h46" fill="none" stroke="#0d47a1" stroke-linecap="round" stroke-linejoin="round" stroke-width="8"/>
</svg>
